<mxfile host="Electron" modified="2023-12-24T13:15:17.614Z" agent="Mozilla/5.0 (Windows NT 10.0; Win64; x64) AppleWebKit/537.36 (KHTML, like Gecko) draw.io/22.1.2 Chrome/114.0.5735.289 Electron/25.9.4 Safari/537.36" etag="OP_aa7E8zzox4vPbygn-" version="22.1.2" type="device">
  <diagram id="C5RBs43oDa-KdzZeNtuy" name="Page-1">
    <mxGraphModel dx="1418" dy="867" grid="1" gridSize="10" guides="1" tooltips="1" connect="1" arrows="1" fold="1" page="1" pageScale="1" pageWidth="1169" pageHeight="827" math="0" shadow="0">
      <root>
        <mxCell id="WIyWlLk6GJQsqaUBKTNV-0" />
        <mxCell id="WIyWlLk6GJQsqaUBKTNV-1" parent="WIyWlLk6GJQsqaUBKTNV-0" />
        <mxCell id="NdpLFTBTfXOqkWmihYAe-2" value="&lt;u&gt;&lt;font style=&quot;font-size: 14px;&quot;&gt;att:Attestation&lt;/font&gt;&lt;/u&gt;" style="rounded=0;whiteSpace=wrap;html=1;" parent="WIyWlLk6GJQsqaUBKTNV-1" vertex="1">
          <mxGeometry x="879" y="250" width="120" height="60" as="geometry" />
        </mxCell>
        <mxCell id="NdpLFTBTfXOqkWmihYAe-5" value="" style="endArrow=none;dashed=1;html=1;rounded=0;entryX=0.5;entryY=1;entryDx=0;entryDy=0;dashPattern=8 8;" parent="WIyWlLk6GJQsqaUBKTNV-1" target="NdpLFTBTfXOqkWmihYAe-2" edge="1">
          <mxGeometry width="50" height="50" relative="1" as="geometry">
            <mxPoint x="940" y="750" as="sourcePoint" />
            <mxPoint x="939" y="330" as="targetPoint" />
          </mxGeometry>
        </mxCell>
        <mxCell id="NdpLFTBTfXOqkWmihYAe-21" value="Kinésithérapeute" style="whiteSpace=wrap;html=1;fontSize=14;" parent="WIyWlLk6GJQsqaUBKTNV-1" vertex="1">
          <mxGeometry x="190" y="120" width="150" height="70" as="geometry" />
        </mxCell>
        <mxCell id="NdpLFTBTfXOqkWmihYAe-22" value="" style="endArrow=none;dashed=1;html=1;rounded=0;entryX=0.5;entryY=1;entryDx=0;entryDy=0;dashPattern=8 8;" parent="WIyWlLk6GJQsqaUBKTNV-1" target="NdpLFTBTfXOqkWmihYAe-21" edge="1">
          <mxGeometry width="50" height="50" relative="1" as="geometry">
            <mxPoint x="270" y="750" as="sourcePoint" />
            <mxPoint x="1119" y="270" as="targetPoint" />
          </mxGeometry>
        </mxCell>
        <mxCell id="NdpLFTBTfXOqkWmihYAe-23" value="UCC" style="whiteSpace=wrap;html=1;fontSize=14;" parent="WIyWlLk6GJQsqaUBKTNV-1" vertex="1">
          <mxGeometry x="470" y="120" width="150" height="70" as="geometry" />
        </mxCell>
        <mxCell id="NdpLFTBTfXOqkWmihYAe-24" value="" style="endArrow=none;dashed=1;html=1;rounded=0;dashPattern=8 8;entryX=0.5;entryY=1;entryDx=0;entryDy=0;" parent="WIyWlLk6GJQsqaUBKTNV-1" source="NdpLFTBTfXOqkWmihYAe-31" target="NdpLFTBTfXOqkWmihYAe-23" edge="1">
          <mxGeometry width="50" height="50" relative="1" as="geometry">
            <mxPoint x="550" y="1492.962917751736" as="sourcePoint" />
            <mxPoint x="545" y="160" as="targetPoint" />
          </mxGeometry>
        </mxCell>
        <mxCell id="NdpLFTBTfXOqkWmihYAe-25" value="&lt;u&gt;sys:Systeme&lt;/u&gt;" style="whiteSpace=wrap;html=1;fontSize=14;" parent="WIyWlLk6GJQsqaUBKTNV-1" vertex="1">
          <mxGeometry x="700" y="120" width="150" height="70" as="geometry" />
        </mxCell>
        <mxCell id="NdpLFTBTfXOqkWmihYAe-27" value="" style="endArrow=none;dashed=1;html=1;rounded=0;dashPattern=8 8;entryX=0.5;entryY=1;entryDx=0;entryDy=0;" parent="WIyWlLk6GJQsqaUBKTNV-1" source="NdpLFTBTfXOqkWmihYAe-37" target="NdpLFTBTfXOqkWmihYAe-25" edge="1">
          <mxGeometry width="50" height="50" relative="1" as="geometry">
            <mxPoint x="775" y="1480" as="sourcePoint" />
            <mxPoint x="555" y="160" as="targetPoint" />
          </mxGeometry>
        </mxCell>
        <mxCell id="NdpLFTBTfXOqkWmihYAe-28" value="" style="shape=umlActor;verticalLabelPosition=bottom;verticalAlign=top;html=1;outlineConnect=0;" parent="WIyWlLk6GJQsqaUBKTNV-1" vertex="1">
          <mxGeometry x="250" y="40" width="30" height="60" as="geometry" />
        </mxCell>
        <mxCell id="NdpLFTBTfXOqkWmihYAe-29" value="" style="endArrow=openAsync;html=1;rounded=0;endFill=0;" parent="WIyWlLk6GJQsqaUBKTNV-1" edge="1">
          <mxGeometry width="50" height="50" relative="1" as="geometry">
            <mxPoint x="270" y="250" as="sourcePoint" />
            <mxPoint x="540" y="250" as="targetPoint" />
          </mxGeometry>
        </mxCell>
        <mxCell id="NdpLFTBTfXOqkWmihYAe-30" value="&lt;font style=&quot;font-size: 18px;&quot;&gt;delivrerAttestation( p )&lt;/font&gt;" style="text;html=1;align=center;verticalAlign=middle;resizable=0;points=[];autosize=1;strokeColor=none;fillColor=none;" parent="WIyWlLk6GJQsqaUBKTNV-1" vertex="1">
          <mxGeometry x="310" y="210" width="200" height="40" as="geometry" />
        </mxCell>
        <mxCell id="NdpLFTBTfXOqkWmihYAe-32" value="" style="endArrow=none;dashed=1;html=1;rounded=0;dashPattern=8 8;entryX=0.5;entryY=1;entryDx=0;entryDy=0;" parent="WIyWlLk6GJQsqaUBKTNV-1" target="NdpLFTBTfXOqkWmihYAe-31" edge="1">
          <mxGeometry width="50" height="50" relative="1" as="geometry">
            <mxPoint x="545" y="750" as="sourcePoint" />
            <mxPoint x="545" y="150" as="targetPoint" />
          </mxGeometry>
        </mxCell>
        <mxCell id="NdpLFTBTfXOqkWmihYAe-31" value="" style="html=1;points=[[0,0,0,0,5],[0,1,0,0,-5],[1,0,0,0,5],[1,1,0,0,-5]];perimeter=orthogonalPerimeter;outlineConnect=0;targetShapes=umlLifeline;portConstraint=eastwest;newEdgeStyle={&quot;curved&quot;:0,&quot;rounded&quot;:0};" parent="WIyWlLk6GJQsqaUBKTNV-1" vertex="1">
          <mxGeometry x="540" y="250" width="10" height="480" as="geometry" />
        </mxCell>
        <mxCell id="NdpLFTBTfXOqkWmihYAe-33" value="" style="endArrow=open;html=1;rounded=0;entryX=0;entryY=0.5;entryDx=0;entryDy=0;endFill=0;dashed=1;dashPattern=12 12;" parent="WIyWlLk6GJQsqaUBKTNV-1" source="NdpLFTBTfXOqkWmihYAe-31" target="NdpLFTBTfXOqkWmihYAe-2" edge="1">
          <mxGeometry width="50" height="50" relative="1" as="geometry">
            <mxPoint x="560" y="320" as="sourcePoint" />
            <mxPoint x="880" y="210" as="targetPoint" />
          </mxGeometry>
        </mxCell>
        <mxCell id="NdpLFTBTfXOqkWmihYAe-35" value="&lt;font style=&quot;font-size: 18px;&quot;&gt;new Attestation( p )&lt;/font&gt;" style="text;html=1;align=center;verticalAlign=middle;resizable=0;points=[];autosize=1;strokeColor=none;fillColor=none;rotation=0;" parent="WIyWlLk6GJQsqaUBKTNV-1" vertex="1">
          <mxGeometry x="580" y="240" width="180" height="40" as="geometry" />
        </mxCell>
        <mxCell id="NdpLFTBTfXOqkWmihYAe-38" value="" style="endArrow=none;dashed=1;html=1;rounded=0;dashPattern=8 8;entryX=0.5;entryY=1;entryDx=0;entryDy=0;" parent="WIyWlLk6GJQsqaUBKTNV-1" target="NdpLFTBTfXOqkWmihYAe-37" edge="1">
          <mxGeometry width="50" height="50" relative="1" as="geometry">
            <mxPoint x="775" y="750" as="sourcePoint" />
            <mxPoint x="775" y="150" as="targetPoint" />
          </mxGeometry>
        </mxCell>
        <mxCell id="NdpLFTBTfXOqkWmihYAe-37" value="" style="html=1;points=[[0,0,0,0,5],[0,1,0,0,-5],[1,0,0,0,5],[1,1,0,0,-5]];perimeter=orthogonalPerimeter;outlineConnect=0;targetShapes=umlLifeline;portConstraint=eastwest;newEdgeStyle={&quot;curved&quot;:0,&quot;rounded&quot;:0};" parent="WIyWlLk6GJQsqaUBKTNV-1" vertex="1">
          <mxGeometry x="770" y="310" width="10" height="50" as="geometry" />
        </mxCell>
        <mxCell id="NdpLFTBTfXOqkWmihYAe-39" value="" style="endArrow=open;html=1;rounded=0;endFill=0;" parent="WIyWlLk6GJQsqaUBKTNV-1" edge="1">
          <mxGeometry width="50" height="50" relative="1" as="geometry">
            <mxPoint x="550.0000000000001" y="310" as="sourcePoint" />
            <mxPoint x="770" y="310" as="targetPoint" />
          </mxGeometry>
        </mxCell>
        <mxCell id="NdpLFTBTfXOqkWmihYAe-40" value="&lt;span style=&quot;font-size: 18px;&quot;&gt;recupererSeances( p )&lt;/span&gt;" style="text;html=1;align=center;verticalAlign=middle;resizable=0;points=[];autosize=1;strokeColor=none;fillColor=none;rotation=0;" parent="WIyWlLk6GJQsqaUBKTNV-1" vertex="1">
          <mxGeometry x="570" y="275" width="200" height="40" as="geometry" />
        </mxCell>
        <mxCell id="NdpLFTBTfXOqkWmihYAe-41" value="" style="endArrow=open;html=1;rounded=0;endFill=0;dashed=1;dashPattern=12 12;exitX=0;exitY=1;exitDx=0;exitDy=-5;exitPerimeter=0;" parent="WIyWlLk6GJQsqaUBKTNV-1" source="NdpLFTBTfXOqkWmihYAe-37" target="NdpLFTBTfXOqkWmihYAe-31" edge="1">
          <mxGeometry width="50" height="50" relative="1" as="geometry">
            <mxPoint x="560" y="290" as="sourcePoint" />
            <mxPoint x="710" y="330" as="targetPoint" />
          </mxGeometry>
        </mxCell>
        <mxCell id="NdpLFTBTfXOqkWmihYAe-44" value="LOOP" style="shape=umlFrame;whiteSpace=wrap;html=1;pointerEvents=0;" parent="WIyWlLk6GJQsqaUBKTNV-1" vertex="1">
          <mxGeometry x="150" y="390" width="850" height="290" as="geometry" />
        </mxCell>
        <mxCell id="NdpLFTBTfXOqkWmihYAe-45" value="OPT" style="shape=umlFrame;whiteSpace=wrap;html=1;pointerEvents=0;" parent="WIyWlLk6GJQsqaUBKTNV-1" vertex="1">
          <mxGeometry x="292.5" y="440" width="677.5" height="190" as="geometry" />
        </mxCell>
        <mxCell id="NdpLFTBTfXOqkWmihYAe-46" value="&lt;font style=&quot;font-size: 18px;&quot;&gt;[* les &lt;br&gt;seances ]&lt;/font&gt;" style="text;html=1;align=center;verticalAlign=middle;resizable=0;points=[];autosize=1;strokeColor=none;fillColor=none;" parent="WIyWlLk6GJQsqaUBKTNV-1" vertex="1">
          <mxGeometry x="150" y="430" width="100" height="60" as="geometry" />
        </mxCell>
        <mxCell id="NdpLFTBTfXOqkWmihYAe-47" value="" style="html=1;points=[[0,0,0,0,5],[0,1,0,0,-5],[1,0,0,0,5],[1,1,0,0,-5]];perimeter=orthogonalPerimeter;outlineConnect=0;targetShapes=umlLifeline;portConstraint=eastwest;newEdgeStyle={&quot;curved&quot;:0,&quot;rounded&quot;:0};" parent="WIyWlLk6GJQsqaUBKTNV-1" vertex="1">
          <mxGeometry x="770" y="480" width="10" height="40" as="geometry" />
        </mxCell>
        <mxCell id="NdpLFTBTfXOqkWmihYAe-48" value="" style="endArrow=open;html=1;rounded=0;endFill=0;" parent="WIyWlLk6GJQsqaUBKTNV-1" edge="1">
          <mxGeometry width="50" height="50" relative="1" as="geometry">
            <mxPoint x="550" y="480.0000000000001" as="sourcePoint" />
            <mxPoint x="770" y="480.0000000000001" as="targetPoint" />
          </mxGeometry>
        </mxCell>
        <mxCell id="NdpLFTBTfXOqkWmihYAe-50" value="&lt;font style=&quot;font-size: 18px;&quot;&gt;seances&lt;/font&gt;" style="text;html=1;align=center;verticalAlign=middle;resizable=0;points=[];autosize=1;strokeColor=none;fillColor=none;" parent="WIyWlLk6GJQsqaUBKTNV-1" vertex="1">
          <mxGeometry x="610" y="320" width="90" height="40" as="geometry" />
        </mxCell>
        <mxCell id="NdpLFTBTfXOqkWmihYAe-51" value="&lt;font style=&quot;font-size: 14px;&quot;&gt;changerEtatSeanceFacture( &lt;strike style=&quot;color: rgb(255, 0, 0);&quot;&gt;s&lt;/strike&gt;&lt;font color=&quot;#33ff33&quot;&gt; &lt;/font&gt;&lt;font color=&quot;#00cc00&quot;&gt;seance &lt;/font&gt;)&lt;/font&gt;" style="text;html=1;align=center;verticalAlign=middle;resizable=0;points=[];autosize=1;strokeColor=none;fillColor=none;" parent="WIyWlLk6GJQsqaUBKTNV-1" vertex="1">
          <mxGeometry x="538" y="445" width="270" height="30" as="geometry" />
        </mxCell>
        <mxCell id="NdpLFTBTfXOqkWmihYAe-52" value="" style="endArrow=open;html=1;rounded=0;endFill=0;dashed=1;dashPattern=12 12;exitX=0;exitY=1;exitDx=0;exitDy=-5;exitPerimeter=0;" parent="WIyWlLk6GJQsqaUBKTNV-1" edge="1">
          <mxGeometry width="50" height="50" relative="1" as="geometry">
            <mxPoint x="770" y="520" as="sourcePoint" />
            <mxPoint x="550" y="520" as="targetPoint" />
          </mxGeometry>
        </mxCell>
        <mxCell id="NdpLFTBTfXOqkWmihYAe-53" value="" style="endArrow=open;html=1;rounded=0;endFill=0;entryX=-0.033;entryY=-0.004;entryDx=0;entryDy=0;entryPerimeter=0;" parent="WIyWlLk6GJQsqaUBKTNV-1" target="NdpLFTBTfXOqkWmihYAe-54" edge="1">
          <mxGeometry width="50" height="50" relative="1" as="geometry">
            <mxPoint x="550" y="560.0000000000001" as="sourcePoint" />
            <mxPoint x="770" y="560.0000000000001" as="targetPoint" />
          </mxGeometry>
        </mxCell>
        <mxCell id="NdpLFTBTfXOqkWmihYAe-54" value="" style="html=1;points=[[0,0,0,0,5],[0,1,0,0,-5],[1,0,0,0,5],[1,1,0,0,-5]];perimeter=orthogonalPerimeter;outlineConnect=0;targetShapes=umlLifeline;portConstraint=eastwest;newEdgeStyle={&quot;curved&quot;:0,&quot;rounded&quot;:0};" parent="WIyWlLk6GJQsqaUBKTNV-1" vertex="1">
          <mxGeometry x="935" y="560" width="10" height="40" as="geometry" />
        </mxCell>
        <mxCell id="NdpLFTBTfXOqkWmihYAe-55" value="&lt;font style=&quot;font-size: 14px;&quot;&gt;ajouterMontantPrestation(&amp;nbsp;&lt;strike style=&quot;border-color: var(--border-color); color: rgb(255, 0, 0);&quot;&gt;s&lt;/strike&gt;&lt;font style=&quot;border-color: var(--border-color);&quot; color=&quot;#33ff33&quot;&gt;&amp;nbsp;&lt;/font&gt;&lt;font style=&quot;border-color: var(--border-color);&quot; color=&quot;#00cc00&quot;&gt;seance&lt;/font&gt;&amp;nbsp;)&lt;/font&gt;" style="text;html=1;align=center;verticalAlign=middle;resizable=0;points=[];autosize=1;strokeColor=none;fillColor=none;" parent="WIyWlLk6GJQsqaUBKTNV-1" vertex="1">
          <mxGeometry x="595" y="530" width="250" height="30" as="geometry" />
        </mxCell>
        <mxCell id="NdpLFTBTfXOqkWmihYAe-56" value="" style="endArrow=open;html=1;rounded=0;endFill=0;dashed=1;dashPattern=12 12;exitX=0;exitY=1;exitDx=0;exitDy=-5;exitPerimeter=0;" parent="WIyWlLk6GJQsqaUBKTNV-1" source="NdpLFTBTfXOqkWmihYAe-54" target="NdpLFTBTfXOqkWmihYAe-31" edge="1">
          <mxGeometry width="50" height="50" relative="1" as="geometry">
            <mxPoint x="780" y="530" as="sourcePoint" />
            <mxPoint x="560" y="530" as="targetPoint" />
          </mxGeometry>
        </mxCell>
        <mxCell id="NdpLFTBTfXOqkWmihYAe-57" value="" style="endArrow=open;html=1;rounded=0;endFill=0;dashed=1;dashPattern=12 12;exitX=0;exitY=1;exitDx=0;exitDy=-5;exitPerimeter=0;" parent="WIyWlLk6GJQsqaUBKTNV-1" source="NdpLFTBTfXOqkWmihYAe-31" edge="1">
          <mxGeometry width="50" height="50" relative="1" as="geometry">
            <mxPoint x="945" y="605" as="sourcePoint" />
            <mxPoint x="270" y="725" as="targetPoint" />
          </mxGeometry>
        </mxCell>
        <mxCell id="NdpLFTBTfXOqkWmihYAe-59" value="&lt;font style=&quot;font-size: 18px;&quot;&gt;att&lt;/font&gt;" style="text;html=1;align=center;verticalAlign=middle;resizable=0;points=[];autosize=1;strokeColor=none;fillColor=none;" parent="WIyWlLk6GJQsqaUBKTNV-1" vertex="1">
          <mxGeometry x="380" y="683" width="40" height="40" as="geometry" />
        </mxCell>
        <mxCell id="NdpLFTBTfXOqkWmihYAe-60" value="&lt;font style=&quot;font-size: 18px;&quot;&gt;[ seance etat = &quot;effectuée&quot;&lt;br&gt;OR etat = &quot;annulée&quot; ]&lt;/font&gt;" style="text;html=1;align=center;verticalAlign=middle;resizable=0;points=[];autosize=1;strokeColor=none;fillColor=none;" parent="WIyWlLk6GJQsqaUBKTNV-1" vertex="1">
          <mxGeometry x="305" y="480" width="230" height="60" as="geometry" />
        </mxCell>
      </root>
    </mxGraphModel>
  </diagram>
</mxfile>
